<svg xmlns="http://www.w3.org/2000/svg" viewBox="2315 4761 19.545 20">
    <defs>
        <style>
            .cls-1{clip-path:url(#clip-path)}.cls-2{fill:#fbbc05}.cls-3{fill:#ea4335}.cls-4{fill:#34a853}.cls-5{fill:#4285f4}
        </style>
        <clipPath id="clip-path">
            <path id="Path_309" d="M21.318 10.182H12v3.864h5.364c-.5 2.455-2.591 3.864-5.364 3.864a5.909 5.909 0 0 1 0-11.819 5.781 5.781 0 0 1 3.682 1.318L18.591 4.5A9.994 9.994 0 1 0 12 22c5 0 9.545-3.636 9.545-10a8.3 8.3 0 0 0-.227-1.818z"
                  data-name="Path 309" transform="translate(-2 -2)"/>
        </clipPath>
    </defs>
    <g id="Google__G__Logo" transform="translate(2313 4759)">
        <g id="Group_307" class="cls-1" data-name="Group 307" transform="translate(2 2)">
            <path id="Path_308" d="M0 22.818V11l7.727 5.909z" class="cls-2" data-name="Path 308" transform="translate(-.909 -6.909)"/>
        </g>
        <g id="Group_308" class="cls-1" data-name="Group 308" transform="translate(2 2)">
            <path id="Path_310" d="M0 5l7.727 5.909 3.182-2.773 10.909-1.772V0H0z" class="cls-3" data-name="Path 310" transform="translate(-.909 -.909)"/>
        </g>
        <g id="Group_309" class="cls-1" data-name="Group 309" transform="translate(2 2)">
            <path id="Path_312" d="M0 16.818L13.636 6.364l3.591.455L21.818 0v21.818H0z" class="cls-4" data-name="Path 312" transform="translate(-.909 -.909)"/>
        </g>
        <g id="Group_310" class="cls-1" data-name="Group 310" transform="translate(2 2)">
            <path id="Path_314" d="M28.909 27.818L14.818 16.909 13 15.545 28.909 11z" class="cls-5" data-name="Path 314" transform="translate(-8 -6.909)"/>
        </g>
    </g>
</svg>
